<svg id="Layer_1" data-name="Layer 1" xmlns="http://www.w3.org/2000/svg" viewBox="0 0 618.97 328.95"><defs><style>.cls-1{fill:#ec2026;}.cls-2{fill:#7ab542;}.cls-3{fill:#b3b4b4;}.cls-16,.cls-4{fill:#4d4d4e;}.cls-15,.cls-5{fill:#3ba248;}.cls-6{fill:#00a99d;}.cls-7{fill:#737474;}.cls-18,.cls-8{fill:#f9f182;}.cls-9{fill:#e6e7e8;}.cls-10,.cls-13{fill:#3ab57e;}.cls-10,.cls-11,.cls-13,.cls-15,.cls-16,.cls-17,.cls-18,.cls-19{fill-rule:evenodd;}.cls-11{fill:#333;}.cls-12{font-size:15.91px;font-family:Bauhaus93, Bauhaus93;}.cls-12,.cls-19{fill:#fff;}.cls-13{stroke:#fff;stroke-miterlimit:22.93;stroke-width:0.22px;}.cls-14{fill:#fbfcfd;}.cls-17{fill:#2d8340;}</style></defs><title>car-wash-utilities-2</title><path class="cls-1" d="M237.63,323.24A12.24,12.24,0,0,0,229.87,335l.07,1.38a12,12,0,0,0,8.9,11.08c-.77-7.95-1.14-16.49-1.21-24.23Z" transform="translate(-126.5 -79.86)"/><path class="cls-2" d="M509.73,218.35c36.68,6.86,97.65,60.87,97.65,60.87,120.43,0,132.06,35.34,135.05,50.84H742v39.63H241.56s-11.6-48.79,0-57.42c159.34-118.54,250.87-97.15,268.16-93.92Z" transform="translate(-126.5 -79.86)"/><path class="cls-3" d="M745.47,358.81c0-2.47-1.78-4.63-3.46-4.63H236.33c-1.67,0-2.6,2.16-2.6,4.63v6.56c0,2.47.92,4.32,2.6,4.32H742c1.67,0,3.46-1.85,3.46-4.32v-6.56Z" transform="translate(-126.5 -79.86)"/><path class="cls-4" d="M587,280.1H315.89S395.69,220.53,493.52,226c0,0,41-1,93.46,54.11Z" transform="translate(-126.5 -79.86)"/><path class="cls-5" d="M443.94,280.1h15.51l-.15-53.49c-5.16.51-10.34,1-15.36,1.81V280.1Z" transform="translate(-126.5 -79.86)"/><path class="cls-6" d="M695.59,369.69c0-27.57-20.64-46.1-46.1-46.1s-46.1,18.53-46.1,46.1Z" transform="translate(-126.5 -79.86)"/><path class="cls-4" d="M613.65,372.69a36.12,36.12,0,1,0,36.13-36.12,36.12,36.12,0,0,0-36.13,36.12Z" transform="translate(-126.5 -79.86)"/><path class="cls-7" d="M625.5,372.69a24.28,24.28,0,1,0,24.28-24.27,24.28,24.28,0,0,0-24.28,24.27Z" transform="translate(-126.5 -79.86)"/><path class="cls-5" d="M365.24,369.69c0-27.57-20.64-46.1-46.1-46.1S273,342.13,273,369.69Z" transform="translate(-126.5 -79.86)"/><path class="cls-4" d="M283.3,372.69a36.12,36.12,0,1,0,36.13-36.12,36.12,36.12,0,0,0-36.13,36.12Z" transform="translate(-126.5 -79.86)"/><path class="cls-3" d="M295.15,372.69a24.28,24.28,0,1,0,24.28-24.27,24.28,24.28,0,0,0-24.28,24.27Z" transform="translate(-126.5 -79.86)"/><path class="cls-5" d="M499.08,301.86c0-3-2-6.25-4.94-6.25h-28.9c-3,0-5.79,3.29-5.79,6.25v1.32c0,3,2.83,4.49,5.79,4.49h28.9c3,0,4.94-1.52,4.94-4.49v-1.32Z" transform="translate(-126.5 -79.86)"/><path class="cls-8" d="M726.6,316.13a9.58,9.58,0,0,1,7.08-3.75c5.6,7.11,8.34,14.06,8.34,19.23v11.8c-3.45-.91-5.59-2.42-8.43-4.64-8.62-6.75-11.5-16.88-7-22.64Z" transform="translate(-126.5 -79.86)"/><path class="cls-9" d="M126.59,266.53a50,50,0,1,0,52.91-46.9,50,50,0,0,0-52.91,46.9Z" transform="translate(-126.5 -79.86)"/><path class="cls-9" d="M226.58,191.2a50,50,0,1,0,52.91-46.9,50,50,0,0,0-52.91,46.9Z" transform="translate(-126.5 -79.86)"/><path class="cls-9" d="M334.91,152a50,50,0,1,0,52.91-46.9A50,50,0,0,0,334.91,152Z" transform="translate(-126.5 -79.86)"/><path class="cls-9" d="M451.75,141.2a50,50,0,1,0,52.91-46.9,50,50,0,0,0-52.91,46.9Z" transform="translate(-126.5 -79.86)"/><path class="cls-4" d="M176.5,297.65a28.12,28.12,0,1,0-19.88-8.24,28,28,0,0,0,19.88,8.24Zm21.05-7.07a29.78,29.78,0,1,1,8.72-21.05,29.69,29.69,0,0,1-8.72,21.05Z" transform="translate(-126.5 -79.86)"/><path class="cls-10" d="M178.2,280.13c-7.53,1.12-13.1.07-17.91-8.45-2.9-3.3-5.45-6.1-10.18-7.82,19.74-5.29,26.09,5.43,29.13,16l2.47,2.78.69-1.61c-4.14-5.76,0-13.18,8.09-16.16a14.16,14.16,0,0,1,9.32.65c-5.41,1.3-8,3.62-9.15,6.42-.26,6.06-3.26,8.32-7.28,10.26-2,3.09,4.83,1.54,6.29,1.15a16,16,0,0,0,9.52-7,14,14,0,0,0,1.73-11.06c-4.73-15.28-23.56-9.57-23.56-9.57a18,18,0,0,1,4.43-1.84,17.52,17.52,0,0,1,12.81,1.4,15.3,15.3,0,0,1,5.86,21.86,17.53,17.53,0,0,1-10.39,7.62c-11.22,3-8.3-1.2-11.87-4.63Zm-27.66-16.28c.06,0,19.8,2.26,23.08,11.61h0c-3.25-8.29-23-11.6-23.08-11.61Z" transform="translate(-126.5 -79.86)"/><path class="cls-4" d="M276.48,222.32a28.12,28.12,0,1,0-19.88-8.24,28,28,0,0,0,19.88,8.24Zm21.05-7.07a29.77,29.77,0,1,1,8.72-21.05,29.69,29.69,0,0,1-8.72,21.05Z" transform="translate(-126.5 -79.86)"/><path class="cls-10" d="M273.38,170.4c14.13-2,25.31,8.49,26.91,20.63a23.55,23.55,0,0,1-4.65,17.63L262,175a24.93,24.93,0,0,1,11.36-4.65Zm20.37,40.44A24.31,24.31,0,0,1,279.86,218a24,24,0,0,1-27.2-20.7,23.64,23.64,0,0,1,7.14-20.34l33.94,33.94ZM258,175.13l2.17-1.9a26,26,0,0,1,14.58-5.52A26.53,26.53,0,1,1,258,175.13Z" transform="translate(-126.5 -79.86)"/><path class="cls-11" d="M280.08,171.08c1.85,1.22,3.16,2,4.32,3.91,2.43,4,1.53,8.62-1.88,11.88a6.92,6.92,0,0,1-2.35,1.61l4.33,4.33a9,9,0,0,1,7.59-.33c4,1.53,5.85,4.62,6.07,10,1.29-3.59-.49-7.92-2.32-10.28-3.39-4.37-6.15-3.53-8-4.87,2.38-8.11-2.11-15.07-7.8-16.24Z" transform="translate(-126.5 -79.86)"/><path class="cls-11" d="M288.75,210.76a8.71,8.71,0,0,1-6.47-2.42,9.84,9.84,0,0,1-2.84-4.89,9,9,0,0,1-.27-2.26l-5-5c-.48,0-.87.33-1.61.57.54,3,1.52,4,.37,7.48a9.53,9.53,0,0,1-15.24,4.13c.57.37,1,1,1.67,1.49a12.43,12.43,0,0,0,13.11.78,14.35,14.35,0,0,0,3.64-3c1.16.55,1.31,1.33,3.53,2.78a12.82,12.82,0,0,0,10.09,1.3l-1-1Z" transform="translate(-126.5 -79.86)"/><path class="cls-11" d="M267.58,175.9c1.09-2.15,3.08-3.53,4.84-4.81a11.77,11.77,0,0,0-5.76,3.9l.91.91Zm-3.13,10.56.14.86c-1.87.87-2.79.7-4.83,2-5.64,3.5-5.62,8.3-5.26,13.39.17-3.06,0-4.4,1.61-6.73,4.66-6.8,13.82-4.27,15.61,0a4.59,4.59,0,0,0,1.57-.67l-8.84-8.84Z" transform="translate(-126.5 -79.86)"/><path class="cls-11" d="M264.64,192.79c-.7,5.73,3.15,10.78,7,12l.67-2.87c-3.32-1.79-4.21-3.85-4.94-8.52l-2.77-.59Z" transform="translate(-126.5 -79.86)"/><path class="cls-11" d="M277,185.33c2,.14,2.64.88,4.31,1.36a12.82,12.82,0,0,0,1.82-2.15,12.32,12.32,0,0,0-9-2l2.83,2.83Z" transform="translate(-126.5 -79.86)"/><path class="cls-11" d="M280.91,204.89a7.47,7.47,0,0,0,1.42-.55l-2.11-2.11h0l.7,2.66Zm6.92-8.74A13.57,13.57,0,0,0,288,193a4.39,4.39,0,0,0-2.71.62l2.51,2.51Z" transform="translate(-126.5 -79.86)"/><path class="cls-4" d="M384.81,183.12a28.12,28.12,0,1,0-19.88-8.24,28,28,0,0,0,19.88,8.24Zm21.05-7.07A29.77,29.77,0,1,1,414.59,155a29.69,29.69,0,0,1-8.72,21.05Z" transform="translate(-126.5 -79.86)"/><path class="cls-11" d="M376.21,133c.12,1.68,1,1.35,1.81,2.41a52.71,52.71,0,0,0-1.2,5.71,7,7,0,0,0,2.71-4.51l2.4.33c1,3.3-.19-.48,0,4.48.06,0,.15,0,.18.14s.14.11.18.14h4.49l.28-.13c0-1.62.26-2.44-.44-3.44h2.85c0-2.32.08-2.27-1-3.82-1.85-2.68-2.81-2.25-8-2.11-1.85,0-3.07.08-4.21.82Zm-.1,35.26a60.92,60.92,0,0,0,1.61,9.54c4.62,0,8.78.16,13.51,0a29.5,29.5,0,0,0,2.28-11.44,13.18,13.18,0,0,1-6.88,1.93Z" transform="translate(-126.5 -79.86)"/><path class="cls-10" d="M371.62,166.33h15.06A11.36,11.36,0,0,0,398,155V143.67H382.95A11.36,11.36,0,0,0,371.62,155v11.33Z" transform="translate(-126.5 -79.86)"/><text class="cls-12" transform="translate(245.33 80.38)">Eco</text><path class="cls-4" d="M501.65,172.33a28.12,28.12,0,1,0-19.88-8.24,28,28,0,0,0,19.88,8.24Zm21.05-7.07a29.77,29.77,0,1,1,8.72-21.05,29.69,29.69,0,0,1-8.72,21.05Z" transform="translate(-126.5 -79.86)"/><path class="cls-11" d="M499.64,154.54l2.24-2.24c0-.11,1.62-1.93,1.88-2.3.62-.88.86-1.41.3-2.29a32.05,32.05,0,0,0-3.7-4.58c-1.53,1.4-3.72,3.71-5.32,5.32l-.91.91c-1.24,1.24-1,.56.34,2.22.95,1.17,2.1,2.52,2.33,4,0,.21-.16,1.2.63.77a7.5,7.5,0,0,0,1.28-1.05,2.06,2.06,0,0,0,0-1.32c-.06-.22-.12-.41-.21-.66s-.08-.22-.13-.34l-.1-.25a.6.6,0,0,1,0-.11,18,18,0,0,1,1.43,1.94Z" transform="translate(-126.5 -79.86)"/><path class="cls-11" d="M480.61,130l-.28.28c-.07.48-.17.42,0,1a8.39,8.39,0,0,0,1.94,3,30.21,30.21,0,0,0,3.95,3.35,10.72,10.72,0,0,1,3.31,3.81,7.4,7.4,0,0,1,.42,3.94l5.66-5.65a7.57,7.57,0,0,0-1,0,6,6,0,0,1-2.93-.7c-3.27-1.8-5.5-6.91-9.13-8.7a4.91,4.91,0,0,0-1-.36c-.56-.14-.45-.07-1,0Z" transform="translate(-126.5 -79.86)"/><polygon class="cls-11" points="366 69.6 373.09 62.51 372.37 61.74 365.25 68.85 366 69.6 366 69.6"/><polygon class="cls-11" points="364.12 67.72 371.22 60.63 370.49 59.87 363.39 66.97 364.12 67.72 364.12 67.72"/><polygon class="cls-11" points="364.87 68.48 371.99 61.36 371.62 61 364.51 68.1 364.87 68.48 364.87 68.48"/><path class="cls-11" d="M499.23,138.38a4.09,4.09,0,0,1,.72-1.31c1.78-1.43,13.18-1.4,15.38-.07.79.48,2.28,5.63,2.32,6.42-1.81.89-7.78,1.25-12.82,1.05.49.64.94,1.28,1.33,1.88,1.16,1.82.81,3.4-.36,5.07-.51.72-1.15,1.38-1.71,2.07l-.06.17-1.77,1.77,13.09,0c.35,2.29-.67,3.14,2.26,3.12,4.75,0,4,1.29,4-9.87a9.3,9.3,0,0,0-.4-2.54,4.26,4.26,0,0,0,1.83-.18,3.29,3.29,0,0,0-.54-2.29c-.57-.79-1.42-.6-2.43-.63l-2.13-5.85a3.19,3.19,0,0,0-1-1.72c-2-1.71-6.26-1.71-9.28-1.7s-7,.07-9.09,1.74a3.71,3.71,0,0,0-.93,1.27l1.28,1.33,0,0,.32.34Zm17.52,12.48c-.81,0-2.5.15-2.84-.5-.25-1.38,1.14-1.62,2.18-2.07,1.86-.82,3.95-1.8,4,.66,0,1.64-.37,1.91-3.29,1.91Z" transform="translate(-126.5 -79.86)"/><path class="cls-13" d="M489.7,145.17c.3.72.88,1.6,1.27,2.29l3.92,6.75c.41.67,1,2.09,1.77.86,4.53-7.42,10.05-13.44,15.47-19.95.61-.73,1.47-1.47,1.47-2-1.26-.85-2,.52-3.21,1.53l-8.07,7.58c-1.83,1.68-3.56,3.31-5.39,5.05-.73.69-.76.5-1.75.06-.79-.35-4.9-2.3-5.47-2.17Z" transform="translate(-126.5 -79.86)"/><path class="cls-9" d="M163.33,348.3a13.19,13.19,0,1,0,14-12.38,13.19,13.19,0,0,0-14,12.38Z" transform="translate(-126.5 -79.86)"/><path class="cls-9" d="M171.58,170.75A22.12,22.12,0,1,0,195,150a22.12,22.12,0,0,0-23.41,20.75Z" transform="translate(-126.5 -79.86)"/><path class="cls-9" d="M328.67,223.18a13.19,13.19,0,1,0,14-12.38,13.19,13.19,0,0,0-14,12.38Z" transform="translate(-126.5 -79.86)"/><path class="cls-9" d="M267,112a19.63,19.63,0,1,0,20.77-18.41A19.63,19.63,0,0,0,267,112Z" transform="translate(-126.5 -79.86)"/><path class="cls-9" d="M310.74,124.63a9.82,9.82,0,1,0,10.39-9.21,9.82,9.82,0,0,0-10.39,9.21Z" transform="translate(-126.5 -79.86)"/><path class="cls-14" d="M313.6,124.66s-.18-.28-.19-.4.14-.16.12-.23a3.54,3.54,0,0,0-.05-.45c0-.07.12,0,.11-.08,0-.21-.15-.42-.08-.55l.14-.27a1,1,0,0,0-.07.21,5.67,5.67,0,0,0,0,.8c0,.32,0,.55,0,.9,0,.05,0,.07,0,.07Z" transform="translate(-126.5 -79.86)"/><path class="cls-14" d="M313.5,122a.52.52,0,0,1,.21-.44v-.12l.05,0h.07a1.19,1.19,0,0,1-.28.45h0s0,0,0,.09l-.09,0Z" transform="translate(-126.5 -79.86)"/><polygon class="cls-14" points="187.34 41.58 187.32 41.58 187.36 41.47 187.36 41.47 187.34 41.58 187.34 41.58"/><path class="cls-9" d="M535.38,205.43A11.95,11.95,0,1,0,548,194.22a11.95,11.95,0,0,0-12.64,11.21Z" transform="translate(-126.5 -79.86)"/><path class="cls-9" d="M430.57,93.35a14.35,14.35,0,1,0,15.19-13.46,14.35,14.35,0,0,0-15.19,13.46Z" transform="translate(-126.5 -79.86)"/><polygon class="cls-14" points="308.6 8.82 308.58 8.82 308.63 8.66 308.63 8.66 308.6 8.82 308.6 8.82"/><path class="cls-15" d="M649.49,323.6c-20.33,0-37.58,11.8-43.71,30.59a49.81,49.81,0,0,0-2.39,15.51h10.39a36.12,36.12,0,0,1,72,0h9.82a49.81,49.81,0,0,0-2.39-15.51c-6.14-18.78-23.38-30.59-43.71-30.59Z" transform="translate(-126.5 -79.86)"/><path class="cls-16" d="M649.78,336.57a36.1,36.1,0,0,0-36,33.12q-.12,1.48-.12,3a36.12,36.12,0,0,0,72.24,0q0-1.51-.12-3a36.09,36.09,0,0,0-36-33.12Zm-15.71,17.61a24.28,24.28,0,0,1,39.8,15.51,24.27,24.27,0,1,1-48.18,0,24.23,24.23,0,0,1,8.38-15.51Z" transform="translate(-126.5 -79.86)"/><path class="cls-16" d="M693.2,354.18a49.81,49.81,0,0,1,2.39,15.51H742c1.67,0,3.46-1.85,3.46-4.32v-6.56c0-2.47-1.79-4.63-3.46-4.63Z" transform="translate(-126.5 -79.86)"/><path class="cls-17" d="M693.2,354.18H742V343.41c-3.44-.91-5.59-2.42-8.43-4.64-8.62-6.74-11.5-16.88-7-22.64a9.57,9.57,0,0,1,7.08-3.75c5.6,7.11,8.34,14.05,8.34,19.23v-1.54h.41c-2.94-15.28-14.27-49.81-129.78-50.83L446.15,354.18H605.78c6.13-18.78,23.38-30.59,43.71-30.59s37.57,11.8,43.71,30.59Z" transform="translate(-126.5 -79.86)"/><path class="cls-16" d="M603.39,369.69a49.81,49.81,0,0,1,2.39-15.51H446.15l-34.45,15.51Z" transform="translate(-126.5 -79.86)"/><polygon class="cls-18" points="133.47 205.18 135.47 214.44 143.95 210.22 137.95 217.56 146.54 221.56 137.06 221.44 139.29 230.65 133.47 223.17 127.66 230.65 129.89 221.44 120.41 221.56 129 217.56 123 210.22 131.49 214.44 133.47 205.18 133.47 205.18"/><polygon class="cls-18" points="272.99 137.29 274.31 143.46 279.97 140.65 275.97 145.53 281.69 148.2 275.38 148.12 276.86 154.25 272.99 149.27 269.12 154.25 270.6 148.12 264.29 148.2 270.01 145.53 266.01 140.65 271.66 143.46 272.99 137.29 272.99 137.29"/><polygon class="cls-18" points="449.54 158.21 452.56 172.26 465.43 165.86 456.32 176.98 469.36 183.05 454.98 182.87 458.36 196.84 449.54 185.49 440.72 196.84 444.1 182.87 429.73 183.05 442.76 176.98 433.65 165.86 446.52 172.26 449.54 158.21 449.54 158.21"/><path class="cls-19" d="M134.37,275.53a38.53,38.53,0,0,0,12.48,27.33,34,34,0,0,0,29.48,6.71q-1.12,0-2.26-.07a38.62,38.62,0,0,1-33.79-52.16,33.83,33.83,0,0,0-5.87,17.14c0,.35,0,.7,0,1Z" transform="translate(-126.5 -79.86)"/><path class="cls-19" d="M236.41,199a38.53,38.53,0,0,0,12.48,27.33A34,34,0,0,0,278.38,233q-1.12,0-2.26-.07a38.62,38.62,0,0,1-33.79-52.16,33.82,33.82,0,0,0-5.87,17.14c0,.35,0,.7,0,1Z" transform="translate(-126.5 -79.86)"/><path class="cls-19" d="M342.84,157.92a38.53,38.53,0,0,0,12.48,27.33A34,34,0,0,0,384.81,192q-1.12,0-2.26-.07a38.62,38.62,0,0,1-33.79-52.16,33.82,33.82,0,0,0-5.87,17.14c0,.35,0,.7,0,1Z" transform="translate(-126.5 -79.86)"/><path class="cls-19" d="M459.25,146.59a38.53,38.53,0,0,0,12.48,27.33,34,34,0,0,0,29.48,6.71q-1.12,0-2.26-.07a38.62,38.62,0,0,1-33.79-52.16,33.83,33.83,0,0,0-5.87,17.14c0,.35,0,.7,0,1Z" transform="translate(-126.5 -79.86)"/><path class="cls-19" d="M538.84,205a10.8,10.8,0,0,0,3.5,7.66,9.55,9.55,0,0,0,8.26,1.88l-.63,0a10.82,10.82,0,0,1-9.47-14.61,9.47,9.47,0,0,0-1.64,4.8c0,.1,0,.2,0,.29Z" transform="translate(-126.5 -79.86)"/><path class="cls-19" d="M331.08,223.28a10.8,10.8,0,0,0,3.5,7.66,9.55,9.55,0,0,0,8.26,1.88l-.63,0a10.82,10.82,0,0,1-9.47-14.61,9.47,9.47,0,0,0-1.64,4.8c0,.1,0,.2,0,.29Z" transform="translate(-126.5 -79.86)"/><path class="cls-19" d="M166.88,349.14a10.8,10.8,0,0,0,3.5,7.66,9.55,9.55,0,0,0,8.26,1.88l-.63,0a10.82,10.82,0,0,1-9.47-14.61,9.47,9.47,0,0,0-1.64,4.8c0,.1,0,.2,0,.29Z" transform="translate(-126.5 -79.86)"/><path class="cls-19" d="M313.5,123.55a10.8,10.8,0,0,0,3.5,7.66,9.55,9.55,0,0,0,8.26,1.88l-.63,0a10.82,10.82,0,0,1-9.47-14.61,9.47,9.47,0,0,0-1.64,4.8c0,.1,0,.2,0,.29Z" transform="translate(-126.5 -79.86)"/><path class="cls-19" d="M433.29,94.36a11.38,11.38,0,0,0,3.68,8.07,10.06,10.06,0,0,0,8.7,2l-.67,0A11.39,11.39,0,0,1,435,89a10,10,0,0,0-1.73,5.06c0,.1,0,.21,0,.31Z" transform="translate(-126.5 -79.86)"/><path class="cls-19" d="M271.72,111.61A17.4,17.4,0,0,0,277.36,124a15.29,15.29,0,0,0,8.78,3.43,15.44,15.44,0,0,0,4.53-.4l-1,0a17.45,17.45,0,0,1-15.27-23.56,15.3,15.3,0,0,0-2.65,7.74c0,.16,0,.31,0,.47Z" transform="translate(-126.5 -79.86)"/><path class="cls-19" d="M176.28,170.35a21.42,21.42,0,0,0,6.94,15.19,18.93,18.93,0,0,0,16.38,3.73c-.41,0-.83,0-1.25,0a21.46,21.46,0,0,1-18.78-29,18.79,18.79,0,0,0-3.26,9.52q0,.29,0,.58Z" transform="translate(-126.5 -79.86)"/></svg>