<svg id="Layer_1" data-name="Layer 1" xmlns="http://www.w3.org/2000/svg" xmlns:xlink="http://www.w3.org/1999/xlink" viewBox="0 0 538.13 332.01"><defs><style>.cls-1,.cls-16{fill:#f2f2f2;}.cls-2{fill:none;}.cls-3{fill:#f15a24;}.cls-4{fill:#333;}.cls-5{fill:#0071bc;}.cls-6{fill:#f7931e;}.cls-7{fill:url(#linear-gradient);}.cls-8{fill:#fff;}.cls-9{fill:url(#linear-gradient-2);}.cls-10{fill:#ef5214;}.cls-11{fill:#f1774b;}.cls-12{fill:#744e91;}.cls-13{fill:#662d91;}.cls-14{fill:#22b573;}.cls-15{fill:#006837;}.cls-16{font-size:6.85px;stroke:#f2f2f2;stroke-miterlimit:10;stroke-width:0.5px;font-family:MyriadPro-Regular, Myriad Pro;}.cls-17{letter-spacing:-0.03em;}.cls-18{letter-spacing:0em;}.cls-19{letter-spacing:0.02em;}.cls-20{fill:#8cc63f;}.cls-21{fill:url(#linear-gradient-3);}</style><linearGradient id="linear-gradient" x1="302.4" y1="94.55" x2="251.73" y2="43.21" gradientUnits="userSpaceOnUse"><stop offset="0.45" stop-color="#009591"/><stop offset="0.48" stop-color="#00a299"/><stop offset="0.51" stop-color="#00a99d"/></linearGradient><linearGradient id="linear-gradient-2" x1="234.28" y1="132.48" x2="210.28" y2="100.48" xlink:href="#linear-gradient"/><linearGradient id="linear-gradient-3" x1="368.88" y1="97.75" x2="336.82" y2="153.28" gradientUnits="userSpaceOnUse"><stop offset="0" stop-color="#f2f2f2" stop-opacity="0.98"/><stop offset="1" stop-color="#f2f2f2"/></linearGradient></defs><title>map-2</title><path class="cls-1" d="M531.84,116.88a15.74,15.74,0,0,0,.13-2,16.66,16.66,0,0,0-31.89-6.74s0-.14,0-.14h0c-2.84-3-6.44-3.47-10.36-3.47a16.71,16.71,0,0,0-16,12.38s0,.09,0,.12,0,.18-.06.27c-.14.6-.35,1.21-.43,1.84a4.34,4.34,0,0,0-.13.53h0c0,.09.06.18,0,.26a.37.37,0,0,0-.09.25c0-.18.13-.36.15-.53a16.18,16.18,0,0,1,.51-2.62,12.07,12.07,0,0,0-6.49,3.37,11.9,11.9,0,0,0-3.57,8.52A12.1,12.1,0,0,0,475.73,141H530.4a12.08,12.08,0,0,0,8.65-3.41,11.93,11.93,0,0,0,3.58-8.53A12.26,12.26,0,0,0,531.84,116.88Zm8.84,17.1h0Zm-12.31-1.68-.39-.16.39.15Zm2.67.86-.34-.09-.34-.09-.22-.07-.44-.14-.14,0-.53-.18-.15-.05,0,0h0l-.06,0,.1,0,.47.16c.6.21,1.22.39,1.83.55Zm.72.19h-.07l-.46-.12,1,.23Zm2.23.44-.28,0,.47.07.34,0Zm.61.08.42,0,.2,0Zm4.28.2-.72,0c-.5,0-1,0-1.48,0a.9.9,0,0,1-.11,0s0,0-.05,0h-.09c-.08,0-.17,0-.26,0h0l-.19,0,.41,0h.3l.61,0c-.2,0-.41,0-.61-.06.49,0,1,0,1.48,0h.09c.23,0,.47,0,.7,0C538.94,134,538.91,134.07,538.89,134.07Zm.54,0h0Zm.1,0h0Zm.07,0h0Zm2.56-.21-.49.07a3.64,3.64,0,0,1-.49.09h-.49a2.54,2.54,0,0,0-.28,0h-.24s0,0-.06,0-.24,0-.36,0h.89l0,0h.08s0,0,0,0h-.05l.07,0H541l.16,0-.09,0s-.06,0-.09,0h-.18l.17,0h.19l-.31,0,.34,0,.74-.09.28,0Z" transform="translate(-217.85 -94.92)"/><circle class="cls-2" cx="416.73" cy="157.91" r="1.53"/><path class="cls-2" d="M630.66,246.09c10.23.77,23.88.34,23.88-.17s-2.73-3.84-3.41-4.35-16.38-.26-17.14,0S630.06,246,630.66,246.09Z" transform="translate(-217.85 -94.92)"/><circle class="cls-2" cx="437.44" cy="157.68" r="2.24"/><circle class="cls-2" cx="432.38" cy="157.91" r="1.53"/><ellipse class="cls-2" cx="424.26" cy="158.97" rx="0.94" ry="2.12"/><path class="cls-3" d="M625.87,246.71a2.91,2.91,0,0,1,1.52.46c-.92,1.15-1.61,2-1.76,2.24-.51.68.17,8,.09,8.61,0,0,16.72,2.81,33.43,0,0,0,.6-6.91.17-8.1a17.66,17.66,0,0,0-1.87-2.75,2.91,2.91,0,0,1,1.53-.46c1.18,0,2.35-1.53.59-2.71-1.43-1-3.17.49-3.78,1.07a33.67,33.67,0,0,0-4.31-4.7c-1.28-.77-16.8-.43-17.83-.17-.55.14-2.65,2.56-4.57,4.89-.59-.57-2.35-2-3.8-1.09C623.52,245.18,624.7,246.71,625.87,246.71Zm8.71,7.65a1.53,1.53,0,1,1,1.53-1.53A1.53,1.53,0,0,1,634.58,254.36Zm7.53,1.65c-.52,0-.94-.95-.94-2.12s.42-2.12.94-2.12.94.95.94,2.12S642.63,256,642.11,256Zm8.12-1.65a1.53,1.53,0,1,1,1.53-1.53A1.53,1.53,0,0,1,650.23,254.36Zm7.29-1.76a2.24,2.24,0,1,1-2.24-2.24A2.24,2.24,0,0,1,657.52,252.59Zm-23.53-11c.77-.26,16.46-.51,17.14,0s3.41,3.84,3.41,4.35-13.65.94-23.88.17C630.06,246,633.22,241.82,634,241.57Zm-2.23,11a2.24,2.24,0,1,1-2.24-2.24A2.24,2.24,0,0,1,631.76,252.59Z" transform="translate(-217.85 -94.92)"/><path class="cls-4" d="M624.34,263.79H660.2a.66.66,0,0,0,0-1.33h-1.07a29.84,29.84,0,0,0-.06-3.52s-4.35.71-6.12.82v2.7H631.87v-2.7c-1.76-.12-6.12-.82-6.12-.82a29.84,29.84,0,0,0-.06,3.52h-1.35a.66.66,0,0,0,0,1.33Z" transform="translate(-217.85 -94.92)"/><path class="cls-2" d="M474.89,402.17c-.63-.23-20.51-.35-20.88,0s-1.88,5.83-1.88,5.83l24.76.12S475.51,402.4,474.89,402.17Z" transform="translate(-217.85 -94.92)"/><rect class="cls-2" x="241.37" y="317.16" width="8.45" height="3.5"/><path class="cls-2" d="M471.76,411s-.63,2.21-.13,2.56,5.63.12,6-.12.12-2.68.12-2.68C477.51,410.45,471.76,411,471.76,411Z" transform="translate(-217.85 -94.92)"/><path class="cls-5" d="M446.25,408.46a7.27,7.27,0,0,0,2.18.25,1.23,1.23,0,0,0-.05.21c0,.35.13,10,.13,10s19.51,1.86,32,0c0,0-.37-9.42-.25-10.24a8.33,8.33,0,0,0,2.51-.25c.88-.35.63-2.33,0-2.8-.43-.32-2.3-.37-3.41-.36a36.47,36.47,0,0,0-2.22-5.7c-.5-.47-24.26,0-24.88,0-.37,0-1.63,3.08-2.62,5.7a9.67,9.67,0,0,0-3.38.36C445.63,406.13,445.38,408.11,446.25,408.46Zm19,7.11h-2v-3.5h2Zm12.51-4.78s.25,2.45-.12,2.68-5.5.47-6,.12.13-2.56.13-2.56S477.51,410.45,477.76,410.8ZM454,402.17c.38-.35,20.26-.23,20.88,0s2,5.94,2,5.94L452.13,408S453.63,402.52,454,402.17Zm-2.75,8.62c.25-.35,6,.23,6,.23s.63,2.21.13,2.56-5.63.12-6-.12S451.25,410.8,451.25,410.8Z" transform="translate(-217.85 -94.92)"/><path class="cls-4" d="M446.6,422.91h0a.7.7,0,0,0,.72.68h35a.7.7,0,0,0,.72-.68h0a.7.7,0,0,0-.72-.68h-2.15l.1-2.23s-6.13.7-7.38.7v1.54H456V420.7c-1.25,0-7.38-.7-7.38-.7l.1,2.23h-1.39A.7.7,0,0,0,446.6,422.91Z" transform="translate(-217.85 -94.92)"/><path class="cls-2" d="M747.14,252a4.92,4.92,0,0,0-3.63,2.19c1.6-.68,4.22.17,6.67-.76s1.69-3.71,1.69-3.71A9.92,9.92,0,0,1,747.14,252Z" transform="translate(-217.85 -94.92)"/><path class="cls-2" d="M747.09,242c-.59-.34-17.14-.76-19.51.08a22.89,22.89,0,0,0-2.79,5.15c0,.68,11.74-1.1,25.17.25C750.9,247.59,747.68,242.35,747.09,242Z" transform="translate(-217.85 -94.92)"/><path class="cls-6" d="M753.51,247.24c.59-.42,1.18-1.43-.25-2a3.86,3.86,0,0,0-2.61-.06c-.91-1.58-2.4-4.14-3-4.32a109.07,109.07,0,0,0-20.52,0c-.49.05-1.71,2.39-2.78,4.34a3.87,3.87,0,0,0-2.66,0c-1.44.59-.84,1.6-.25,2a2.45,2.45,0,0,0,1.6.11l0,.06c-1.1,1.43-1.69,1.69-2,2.79a47.33,47.33,0,0,0-.08,8.44c.17.59,4.65,1.94,17.06,1.94s15.37-1.18,15.62-1.52a40.67,40.67,0,0,0,.34-8.78,9.44,9.44,0,0,0-1.79-2.89A2.13,2.13,0,0,0,753.51,247.24Zm-29.05,6.16c-2.45-.93-1.69-3.71-1.69-3.71a9.92,9.92,0,0,0,4.73,2.28,4.92,4.92,0,0,1,3.63,2.19C729.52,253.49,726.9,254.33,724.45,253.4Zm.34-6.16a22.89,22.89,0,0,1,2.79-5.15c2.36-.84,18.92-.42,19.51-.08s3.81,5.58,2.87,5.49C736.53,246.14,724.79,247.92,724.79,247.24Zm25.39,6.16c-2.45.93-5.07.08-6.67.76a4.92,4.92,0,0,1,3.63-2.19,9.92,9.92,0,0,0,4.73-2.28S752.63,252.47,750.18,253.4Z" transform="translate(-217.85 -94.92)"/><path class="cls-4" d="M755.33,262.94h-1.49c0-1-.08-3-.08-3s-3.8,1.43-6.42,1.18v1.86h-20.1v-1.86c-2.62.25-6.42-1.18-6.42-1.18s-.07,2.09-.08,3h-1.29a.65.65,0,1,0,0,1.3h35.88a.65.65,0,1,0,0-1.3Z" transform="translate(-217.85 -94.92)"/><circle class="cls-2" cx="221.35" cy="242.18" r="1.41"/><path class="cls-2" d="M435.6,330.9c9.41.71,22,.31,22-.16s-2.51-3.53-3.14-4-15.06-.24-15.76,0S435.05,330.85,435.6,330.9Z" transform="translate(-217.85 -94.92)"/><circle class="cls-2" cx="240.39" cy="241.96" r="2.06"/><circle class="cls-2" cx="235.74" cy="242.18" r="1.41"/><ellipse class="cls-2" cx="228.28" cy="243.15" rx="0.87" ry="1.95"/><path class="cls-3" d="M431.2,331.47a2.67,2.67,0,0,1,1.4.42c-.84,1.06-1.48,1.87-1.62,2.06-.47.63.16,7.37.08,7.92,0,0,15.37,2.59,30.74,0,0,0,.55-6.35.16-7.45a16.24,16.24,0,0,0-1.72-2.53,2.68,2.68,0,0,1,1.4-.43c1.08,0,2.16-1.41.54-2.49-1.31-.88-2.91.45-3.47,1a31,31,0,0,0-4-4.32c-1.18-.71-15.45-.39-16.39-.16-.5.13-2.44,2.35-4.2,4.5-.54-.52-2.16-1.88-3.49-1C429,330.06,430.12,331.47,431.2,331.47Zm8,7a1.41,1.41,0,1,1,1.41-1.41A1.41,1.41,0,0,1,439.2,338.5Zm6.92,1.51c-.48,0-.87-.87-.87-1.95s.39-1.95.87-1.95.87.87.87,1.95S446.61,340,446.13,340Zm7.46-1.51A1.41,1.41,0,1,1,455,337.1,1.41,1.41,0,0,1,453.59,338.5Zm6.71-1.62a2.06,2.06,0,1,1-2.06-2.06A2.06,2.06,0,0,1,460.3,336.88Zm-21.64-10.14c.71-.24,15.14-.47,15.76,0s3.14,3.53,3.14,4-12.55.86-22,.16C435.05,330.85,438,327,438.66,326.74Zm-2.05,10.14a2.06,2.06,0,1,1-2.06-2.06A2.06,2.06,0,0,1,436.61,336.88Z" transform="translate(-217.85 -94.92)"/><path class="cls-4" d="M429.79,347.18h33a.61.61,0,0,0,0-1.22h-1a27.44,27.44,0,0,0-.06-3.24s-4,.65-5.63.76V346H436.72v-2.48c-1.62-.11-5.63-.76-5.63-.76A27.44,27.44,0,0,0,431,346h-1.24a.61.61,0,0,0,0,1.22Z" transform="translate(-217.85 -94.92)"/><rect class="cls-7" x="263.94" y="17.02" width="73.86" height="151.96"/><rect class="cls-8" x="308.94" y="33.93" width="18.97" height="18.97"/><rect class="cls-8" x="308.94" y="66.99" width="18.97" height="18.97"/><rect class="cls-8" x="308.94" y="100.04" width="18.97" height="18.97"/><rect class="cls-8" x="308.94" y="133.1" width="18.97" height="18.97"/><rect class="cls-8" x="273.83" y="33.93" width="18.97" height="18.97"/><rect class="cls-8" x="273.83" y="66.99" width="18.97" height="18.97"/><rect class="cls-8" x="273.83" y="100.04" width="18.97" height="18.97"/><rect class="cls-8" x="273.83" y="133.1" width="18.97" height="18.97"/><rect class="cls-9" x="209.62" y="93.9" width="47.77" height="75.08"/><rect class="cls-8" x="238.72" y="103.92" width="12.27" height="12.27"/><rect class="cls-8" x="238.72" y="125.3" width="12.27" height="12.27"/><rect class="cls-8" x="238.72" y="146.68" width="12.27" height="12.27"/><rect class="cls-8" x="216.01" y="103.92" width="12.27" height="12.27"/><rect class="cls-8" x="216.01" y="125.3" width="12.27" height="12.27"/><rect class="cls-8" x="216.01" y="146.68" width="12.27" height="12.27"/><rect class="cls-10" x="403.75" y="275.2" width="4.99" height="46.76" transform="translate(-273.3 406.18) rotate(-60)"/><rect class="cls-11" x="138.17" y="217.88" width="61.88" height="34.45"/><polygon class="cls-10" points="169.11 200.3 200.05 218.16 169.11 218.16 138.18 218.16 169.11 200.3"/><polygon class="cls-11" points="128.91 213.19 131.4 217.51 169.4 195.57 169.4 189.81 128.91 213.19"/><rect class="cls-1" x="176.19" y="228.45" width="13.81" height="24.07"/><rect class="cls-1" x="150.54" y="228.25" width="15.41" height="12.23"/><rect class="cls-12" x="157.88" y="294.43" width="61.88" height="34.45"/><polygon class="cls-13" points="188.82 276.85 219.75 294.7 188.82 294.7 157.89 294.7 188.82 276.85"/><rect class="cls-12" x="364.58" y="372.63" width="46.76" height="4.99" transform="translate(-353.42 149.28) rotate(-30)"/><rect class="cls-12" x="423.46" y="351.75" width="4.99" height="46.76" transform="translate(-329.74 461.52) rotate(-60)"/><rect class="cls-8" x="195.9" y="305" width="13.81" height="24.07"/><rect class="cls-8" x="170.24" y="304.8" width="15.41" height="12.23"/><rect class="cls-10" x="289.25" y="275" width="4.99" height="46.76" transform="translate(-330.38 306.93) rotate(-60)"/><rect class="cls-11" x="23.68" y="217.68" width="61.88" height="34.45"/><polygon class="cls-10" points="54.62 200.1 85.55 217.96 54.62 217.96 23.69 217.96 54.62 200.1"/><polygon class="cls-11" points="14.41 212.99 16.91 217.31 54.9 195.38 54.9 189.61 14.41 212.99"/><rect class="cls-1" x="61.7" y="228.25" width="13.81" height="24.07"/><rect class="cls-1" x="36.04" y="228.06" width="15.41" height="12.23"/><rect class="cls-12" x="50.47" y="294.23" width="61.88" height="34.45"/><polygon class="cls-13" points="81.42 276.65 112.35 294.51 81.42 294.51 50.48 294.51 81.42 276.65"/><rect class="cls-12" x="257.17" y="372.43" width="46.76" height="4.99" transform="translate(-367.71 95.55) rotate(-30)"/><rect class="cls-12" x="316.05" y="351.55" width="4.99" height="46.76" transform="translate(-383.28 368.41) rotate(-60)"/><rect class="cls-8" x="88.49" y="304.8" width="13.81" height="24.07"/><rect class="cls-8" x="62.84" y="304.61" width="15.41" height="12.23"/><path class="cls-1" d="M451,110.1a12.82,12.82,0,0,0,.11-1.64,13.56,13.56,0,0,0-26-5.42s0,0,0,0h0a12.59,12.59,0,0,0-8.44-2.89,13.59,13.59,0,0,0-13.07,10.05l0,.08c0,.07,0,.14-.05.21-.11.49-.32,1-.39,1.49,0,.14-.15.28-.15.43h0c0,.07.09.14,0,.22a.28.28,0,0,0-.06.21c0-.14.12-.29.13-.43a13.19,13.19,0,0,1,.42-2.14,9.83,9.83,0,0,0-5.29,2.75,10,10,0,0,0,7.07,17h44.53a9.94,9.94,0,0,0,10-9.92A10.05,10.05,0,0,0,451,110.1Zm7.2,13.89h0Zm-10-1.37-.32-.13.32.12Zm2.18.7-.28-.08-.28-.08-.18-.06-.36-.11-.11,0-.43-.15-.12,0,0,0h0l0,0,.08,0,.38.13c.49.17,1,.32,1.49.45Zm.59.15h-.06l-.37-.1.78.19Zm1.82.36-.23,0,.38.06.28,0Zm.5.07.34,0,.16,0Zm3.49.17-.58,0c-.41,0-.81,0-1.2,0l-.09,0s0,0,0,0h-.07c-.07,0-.14,0-.21,0h0l-.16,0,.33,0h.74c-.17,0-.33,0-.5,0,.4,0,.8,0,1.2,0h.07c.19,0,.38,0,.57,0C456.79,124,456.77,124.06,456.75,124.06Zm.44,0h0Zm.08,0h0Zm.05,0h0Zm2.09-.17-.4.05a3,3,0,0,1-.4.07h-.4a2.07,2.07,0,0,0-.23,0h-.2s0,0,0,0-.19,0-.29,0h.78l.06,0h.31l-.07,0-.08,0h-.15l.14,0h.16l-.25,0,.28,0,.61-.07.23,0Z" transform="translate(-217.85 -94.92)"/><path class="cls-1" d="M604.33,110.1a12.82,12.82,0,0,0,.11-1.64,13.56,13.56,0,0,0-26-5.42s0,0,0,0h0a12.59,12.59,0,0,0-8.44-2.89,13.59,13.59,0,0,0-13.07,10.05l0,.08c0,.07,0,.14-.05.21-.11.49-.48,1-.55,1.49,0,.14-.31.28-.31.43h0c0,.07.25.14.18.22s0,.14,0,.21c0-.14.16-.29.17-.43a13.2,13.2,0,0,1,.44-2.14,9.8,9.8,0,0,0-5.28,2.75,10,10,0,0,0,7.08,17h44.53a9.94,9.94,0,0,0,10-9.92A10.05,10.05,0,0,0,604.33,110.1Zm7.2,13.89h0Zm-10-1.37-.32-.13.32.12Zm2.18.7-.28-.08-.28-.08-.18-.06-.36-.11-.11,0-.43-.15-.12,0,0,0h0l0,0,.08,0,.38.13c.49.17,1,.32,1.49.45Zm.59.15h-.06l-.37-.1.78.19Zm1.82.36-.23,0,.38.06.28,0Zm.5.07.34,0,.16,0Zm3.49.17-.58,0c-.41,0-.81,0-1.2,0l-.09,0s0,0,0,0h-.07c-.07,0-.14,0-.21,0h0l-.16,0,.33,0h.74c-.17,0-.33,0-.5,0,.4,0,.8,0,1.2,0h.07c.19,0,.38,0,.57,0C610.11,124,610.1,124.06,610.07,124.06Zm.44,0h0Zm.08,0h0Zm.05,0h0Zm2.09-.17-.4.05a3,3,0,0,1-.4.07h-.4a2.07,2.07,0,0,0-.23,0h-.2s0,0,0,0-.19,0-.29,0h.78l.06,0h.31l-.07,0-.08,0h-.15l.14,0h.16l-.25,0,.28,0,.61-.07.23,0Z" transform="translate(-217.85 -94.92)"/><path class="cls-1" d="M688.8,116.92a16.34,16.34,0,0,0,.14-2.11,17.59,17.59,0,0,0-17.7-17.48c-7.28,0-13.52,3.91-16.24,10.11,0,0,0-.44,0-.44h0c-3-3-6.85-3.36-11-3.36a17.88,17.88,0,0,0-17.08,13.16s0,.17,0,.2,0,.23-.07.32c-.15.63-.45,1.29-.54,1.95,0,.18-.23.39-.23.57h0c0,.09.15.19.06.28s0,.18-.05.27c0-.19.16-.37.18-.56a16.83,16.83,0,0,1,.55-2.76,12.89,12.89,0,0,0-6.9,3.55,12.13,12.13,0,0,0-3.8,8.82c0,7.1,5.84,12.55,13,12.55h58.19a12.84,12.84,0,0,0,9.2-3.46,12.31,12.31,0,0,0,3.81-8.89A12.88,12.88,0,0,0,688.8,116.92Zm9.41,17.92h0Zm-13.11-1.77-.41-.17.41.16Zm2.84.9-.36-.1-.36-.1-.24-.07-.47-.14-.15,0-.56-.19-.16-.06-.05,0h0l-.06,0,.1,0,.5.17c.64.22,1.29.41,2,.58Zm.77.2h-.08l-.49-.13,1,.24Zm2.38.46-.3-.05.5.07.36.05Zm.65.09.45.05.21,0Zm4.56.21-.76,0c-.53,0-1.05,0-1.57,0,0,0-.08-.45-.12-.46s0-.46-.06-.46h-.09c-.09,0-.18.45-.27.45s-.13.22-.2.22c.09,0,.19.11.29.12s-.05.05-.08.05-.13,0-.2,0l.43,0H694l.65,0c-.22,0-.44-.47-.65-.49.52,0,1-.43,1.57-.43h.09c.24,0,.5.47.75.47C696.35,134.48,696.33,134.93,696.3,134.93Zm.58,0h0Zm.1,0h0Zm.07,0h0Zm2.73-.22c-.17,0-.35-.38-.52-.36s-.34-.33-.52-.33h-.52c-.1,0-.2.45-.3.47s-.07.23-.1.23,0,.12-.07.11,0,.06,0,.06,0,0,0,0,0-.44-.06-.44-.25-.45-.38-.45h.16c.13,0,.27.43.4.42s.09-.21.13-.21,0-.21.06-.21h0s-.07.44-.1.44,0-.22-.06-.22,0-.22-.07-.22H698s0,.44,0,.44,0,.21.05.21,0,.1,0,.1,0,0,0,0,0-.4.06-.4,0-.4,0-.4h0s0,.43,0,.43,0,.22,0,.22,0-.32,0-.31,0-.34,0-.34h.08s0,0,0,0H699v.84s-.65-.84-.67-.84h-.09s.05.41.08.4.06.2.09.2.1.09.15.09.11,0,.17,0-.06-.37-.09-.37-.06-.37-.1-.37h-.19v.42c.06,0,.12.19.18.19s.14.1.2.09c-.11,0-.22.08-.33.1.12,0,.24,0,.36,0l.79-.08.3,0Z" transform="translate(-217.85 -94.92)"/><rect class="cls-4" x="364.61" y="150.34" width="4.94" height="18.5"/><circle class="cls-14" cx="367.08" cy="137.74" r="12.43"/><path class="cls-15" d="M576.14,241.61A12.43,12.43,0,1,0,593.72,224" transform="translate(-217.85 -94.92)"/><text class="cls-16" transform="translate(356.35 140.73)"><tspan class="cls-17">P</tspan><tspan x="3.47" y="0">a</tspan><tspan class="cls-18" x="6.77" y="0">r</tspan><tspan class="cls-19" x="9.04" y="0">k</tspan><tspan x="12.37" y="0">ing</tspan></text><path class="cls-2" d="M504.14,279a4.92,4.92,0,0,0-3.63,2.19c1.6-.68,4.22.17,6.67-.76s1.69-3.71,1.69-3.71A9.92,9.92,0,0,1,504.14,279Z" transform="translate(-217.85 -94.92)"/><path class="cls-2" d="M504.09,269c-.59-.34-17.14-.76-19.51.08a22.89,22.89,0,0,0-2.79,5.15c0,.68,11.74-1.1,25.17.25C507.9,274.59,504.68,269.35,504.09,269Z" transform="translate(-217.85 -94.92)"/><path class="cls-6" d="M345.08,330.8c.57-.41,1.14-1.39-.24-2a3.73,3.73,0,0,0-2.52-.06c-.87-1.53-2.32-4-2.86-4.18a105.32,105.32,0,0,0-19.82,0c-.47.05-1.65,2.31-2.69,4.19a3.74,3.74,0,0,0-2.57,0c-1.39.57-.82,1.55-.24,2a2.37,2.37,0,0,0,1.54.11l0,.06c-1.06,1.39-1.63,1.63-2,2.69a45.7,45.7,0,0,0-.08,8.15c.16.57,4.49,1.87,16.47,1.87s14.84-1.14,15.09-1.47a39.27,39.27,0,0,0,.33-8.48,9.11,9.11,0,0,0-1.73-2.79A2.05,2.05,0,0,0,345.08,330.8ZM317,336.75c-2.36-.9-1.63-3.59-1.63-3.59a9.58,9.58,0,0,0,4.57,2.2,4.75,4.75,0,0,1,3.51,2.12C321.92,336.83,319.4,337.65,317,336.75Zm.33-5.95a22.1,22.1,0,0,1,2.69-5c2.28-.81,18.27-.41,18.84-.08s3.68,5.39,2.77,5.3C328.69,329.75,317.36,331.46,317.36,330.8Zm24.52,5.95c-2.36.9-4.89.08-6.44.73a4.75,4.75,0,0,1,3.51-2.12,9.58,9.58,0,0,0,4.57-2.2S344.24,335.86,341.88,336.75Z" transform="translate(-217.85 -94.92)"/><path class="cls-4" d="M346.84,346h-1.44c0-.92-.08-2.94-.08-2.94s-3.67,1.39-6.2,1.14V346H319.72v-1.8c-2.53.24-6.2-1.14-6.2-1.14s-.07,2-.08,2.94H312.2a.63.63,0,1,0,0,1.26h34.65a.63.63,0,1,0,0-1.26Z" transform="translate(-217.85 -94.92)"/><path class="cls-2" d="M702.08,243.09c-.62-.23-20.26-.35-20.63,0s-1.85,5.76-1.85,5.76l24.45.12S702.69,243.32,702.08,243.09Z" transform="translate(-217.85 -94.92)"/><rect class="cls-2" x="468.75" y="157.96" width="8.35" height="3.45"/><path class="cls-2" d="M699,251.84s-.62,2.19-.12,2.53,5.56.12,5.93-.12.12-2.65.12-2.65C704.67,251.26,699,251.84,699,251.84Z" transform="translate(-217.85 -94.92)"/><path class="cls-5" d="M673.79,249.31a7.18,7.18,0,0,0,2.15.25,1.22,1.22,0,0,0-.05.21c0,.35.12,9.9.12,9.9s19.27,1.84,31.62,0c0,0-.37-9.31-.25-10.11a8.23,8.23,0,0,0,2.48-.25c.86-.35.62-2.3,0-2.76a9.68,9.68,0,0,0-3.37-.36,36,36,0,0,0-2.19-5.63c-.49-.46-24,0-24.58,0-.36,0-1.61,3-2.59,5.63a9.56,9.56,0,0,0-3.34.36C673.18,247,672.93,249,673.79,249.31Zm18.77,7h-2v-3.45h2Zm12.35-4.72s.25,2.42-.12,2.65-5.43.46-5.93.12.12-2.53.12-2.53S704.67,251.26,704.92,251.61Zm-23.47-8.52c.37-.35,20-.23,20.63,0s2,5.87,2,5.87l-24.45-.12S681.08,243.44,681.45,243.09Zm-2.72,8.52c.25-.35,5.93.23,5.93.23s.62,2.19.12,2.53-5.56.12-5.93-.12S678.73,251.61,678.73,251.61Z" transform="translate(-217.85 -94.92)"/><path class="cls-4" d="M674.14,263.58h0a.7.7,0,0,0,.72.67h34.56a.7.7,0,0,0,.72-.67h0a.7.7,0,0,0-.72-.67h-2.13l.09-2.21s-6.05.69-7.29.69v1.52H683.43v-1.52c-1.24,0-7.29-.69-7.29-.69l.09,2.21h-1.38A.7.7,0,0,0,674.14,263.58Z" transform="translate(-217.85 -94.92)"/><path class="cls-2" d="M247.05,402.43c-.63-.23-20.51-.35-20.88,0s-1.88,5.83-1.88,5.83l24.76.12S247.68,402.67,247.05,402.43Z" transform="translate(-217.85 -94.92)"/><rect class="cls-2" x="13.53" y="317.42" width="8.45" height="3.5"/><path class="cls-2" d="M243.93,411.29s-.63,2.21-.13,2.56,5.63.12,6-.12.12-2.68.12-2.68C249.68,410.71,243.93,411.29,243.93,411.29Z" transform="translate(-217.85 -94.92)"/><path class="cls-5" d="M218.42,408.73a7.27,7.27,0,0,0,2.18.25,1.23,1.23,0,0,0-.05.21c0,.35.13,10,.13,10s19.51,1.86,32,0c0,0-.37-9.42-.25-10.24a8.33,8.33,0,0,0,2.51-.25c.88-.35.63-2.33,0-2.8-.43-.32-2.3-.37-3.41-.36a36.47,36.47,0,0,0-2.22-5.7c-.5-.47-24.26,0-24.88,0-.37,0-1.63,3.08-2.62,5.7a9.67,9.67,0,0,0-3.38.36C217.79,406.39,217.54,408.38,218.42,408.73Zm19,7.11h-2v-3.5h2Zm12.51-4.78s.25,2.45-.12,2.68-5.5.47-6,.12.13-2.56.13-2.56S249.68,410.71,249.93,411.06Zm-23.76-8.62c.38-.35,20.26-.23,20.88,0s2,5.94,2,5.94l-24.76-.12S225.79,402.78,226.17,402.43Zm-2.75,8.62c.25-.35,6,.23,6,.23s.63,2.21.13,2.56-5.63.12-6-.12S223.42,411.06,223.42,411.06Z" transform="translate(-217.85 -94.92)"/><path class="cls-4" d="M218.77,423.18h0a.7.7,0,0,0,.72.68h35a.7.7,0,0,0,.72-.68h0a.7.7,0,0,0-.72-.68h-2.15l.1-2.23s-6.13.7-7.38.7v1.54H228.17V421c-1.25,0-7.38-.7-7.38-.7l.1,2.23h-1.39A.7.7,0,0,0,218.77,423.18Z" transform="translate(-217.85 -94.92)"/><path class="cls-20" d="M631.47,426.2c1,7.5-12.62-45.73-76.66-37.87l0,6.71,0,5.57L535.87,389.1l-19.31-11.78,37.15-21.14.1,12.58a133.56,133.56,0,0,1,49.59.37,314.66,314.66,0,0,0-14.72-54.8l-12.15,2.56,18.76-31.56,32,22.57-11.12,2.43c10.24,31.31,12.58,51.88,43.58,92.72Z" transform="translate(-217.85 -94.92)"/><path class="cls-1" d="M295.35,110.43a12.82,12.82,0,0,0,.11-1.64,13.55,13.55,0,0,0-13.55-13.55,13.37,13.37,0,0,0-12.43,8s0-.21,0-.21h0a12.47,12.47,0,0,0-8.44-2.73,13.66,13.66,0,0,0-13.07,10.14s0,.1,0,.12,0,.16-.05.23c-.11.49-.49,1-.55,1.5,0,.14-.31.29-.31.44h0c0,.07.26.14.19.22s0,.14,0,.21c0-.14.16-.29.18-.43a13.2,13.2,0,0,1,.44-2.14,9.8,9.8,0,0,0-5.28,2.75,9.6,9.6,0,0,0-2.9,6.9,9.83,9.83,0,0,0,10,9.79h44.53a9.81,9.81,0,0,0,7-2.74,9.67,9.67,0,0,0,2.92-6.93A10,10,0,0,0,295.35,110.43Zm7.2,13.89h0Zm-10-1.37-.32-.13.32.12Zm2.18.7-.28-.08-.28-.08-.18-.06-.36-.11-.11,0-.43-.15-.12,0,0,0h0l0,0,.08,0,.38.13c.49.17,1,.32,1.49.45Zm.59.15h-.06l-.37-.1.78.19Zm1.82.36-.23,0,.38.06.28,0Zm.5.07.34,0,.16,0Zm3.49.17-.58,0c-.41,0-.81,0-1.2,0,0,0-.06-.19-.09-.19s0-.19,0-.19h-.07c-.07,0-.14.19-.21.18s-.1.09-.16.09.15,0,.22.05l-.06,0h-.16l.33,0h.74c-.17,0-.33-.2-.5-.22.4,0,.8-.17,1.2-.17h.07c.19,0,.38.2.57.2C301.13,124.21,301.11,124.4,301.09,124.4Zm.44,0h0Zm.08,0h0Zm.05,0h0Zm2.09-.17c-.13,0-.27-.13-.4-.11s-.26-.1-.4-.1h-.4c-.08,0-.16.19-.23.2s-.05.1-.08.09,0,.05-.05,0,0,0,0,0h0s0-.18,0-.18-.19-.19-.29-.19h.12c.1,0,.21.17.31.16s.07-.08.1-.08,0-.08,0-.08h0s-.05.18-.08.18,0-.09,0-.09,0-.09-.05-.09h.15s0,.18,0,.18,0,.08,0,.08,0,0,0,0l0,0s0-.16,0-.16,0-.16,0-.16h0s0,.17,0,.17,0,.09,0,.09,0-.13,0-.12,0-.14,0-.14H303v.32s-.35-.32-.36-.32h-.07s0,.15.06.15,0,.07.07.07.08,0,.11,0h.13s0-.13-.07-.13,0-.13-.08-.13h-.14v.16s.09.07.14.06.11,0,.16,0l-.25.06.28,0,.61-.07.23,0Z" transform="translate(-217.85 -94.92)"/><path class="cls-21" d="M380.74,117a16.75,16.75,0,0,0,.14-2.14,17.68,17.68,0,0,0-33.94-7s0,.06,0,.06h0c-3-4-6.85-3.9-11-3.9a17.69,17.69,0,0,0-17.08,13.07.62.62,0,0,0,0,.07c0,.09,0,.17-.07.26-.15.63-.93,1.28-1,1.94,0,.18-.7.36-.7.55h0c0,.09.63.19.54.28s.19.18.18.27c0-.19.28-.38.3-.57a17.28,17.28,0,0,1,.61-2.79,12.74,12.74,0,0,0-6.87,3.59,11.86,11.86,0,0,0-3.78,8.72c0,7.19,5.86,12.49,13,12.49H379.2c3.59,0,6.85-.94,9.2-3.29a12.29,12.29,0,0,0,3.81-8.9A12.88,12.88,0,0,0,380.74,117Zm9.4,18.15h0ZM377,133.39l-.41-.17.41.16Zm2.84.91-.36-.1-.36-.1-.24-.08-.47-.15-.15,0-.56-.19-.16-.06-.05,0h0l-.06,0,.1,0,.5.17c.64.22,1.29.41,2,.59Zm.77.2h-.08l-.49-.13,1,.24ZM383,135l-.3-.05.5.08.36.05Zm.65.09.45.05.21,0Zm4.56.22-.76,0c-.53,0-1.05,0-1.57,0,0,0-.08-.62-.12-.63s0-.63-.06-.63h-.09c-.09,0-.18.62-.27.62s-.13.3-.2.3c.09,0,.19.16.29.16s-.05.07-.08.07-.13,0-.2,0c.15,0,.29,0,.43,0l.32,0,.65,0c-.22,0-.44-.64-.65-.66.52,0,1-.6,1.57-.6h.09c.24,0,.5.64.75.64C388.29,134.65,388.27,135.27,388.24,135.27Zm.58,0h0Zm.1,0h0Zm.07,0h0Zm2.73-.23c-.17,0-.35-.55-.52-.52s-.34-.5-.52-.5h-.52c-.1,0-.2.62-.3.64s-.07.32-.1.31,0,.16-.07.16,0,.08,0,.08,0,0,0,0,0-.6-.06-.6-.25-.62-.38-.62h.16c.13,0,.27.6.4.59s.09-.29.13-.3,0-.29.06-.29h0s-.07.61-.1.61,0-.31-.06-.31,0-.3-.07-.3h.19s0,.61,0,.61,0,.29.05.29,0,.15,0,.15,0,.07,0,.07,0-.56.06-.56,0-.56,0-.56h0s0,.6,0,.6,0,.3,0,.3,0-.45,0-.44,0-.46,0-.46h.08s0,0,0,0H391v1.18s-.72-1.18-.73-1.18h-.09s.05.58.08.57.06.29.09.29.1.13.15.13.11.06.17.06-.06-.53-.09-.52-.06-.52-.1-.52h-.19v.59c.06,0,.12.28.18.27s.14.14.2.13c-.11,0-.22.1-.33.12.12,0,.24,0,.36,0s.53,0,.79-.08l.3,0Z" transform="translate(-217.85 -94.92)"/></svg>