<svg id="Layer_1" data-name="Layer 1" xmlns="http://www.w3.org/2000/svg" viewBox="0 0 666.34 500.97"><defs><style>.cls-1{fill:#29abe2;}.cls-2{fill:#e6e6e6;}.cls-3{fill:#ccc;}.cls-4{fill:#999;}.cls-5{fill:#006837;}.cls-6{fill:#00a99d;}.cls-7{font-size:9.62px;fill:#f2f2f2;font-family:Arial-BoldItalicMT, Arial;font-weight:700;font-style:italic;}.cls-8{fill:#a2c673;}.cls-9{fill:#5aa9a4;}.cls-10{fill:#b3b3b3;}.cls-11{fill:#71c0e2;}.cls-12{fill:#5a95bc;}.cls-13{fill:#8cc63f;}.cls-14{fill:#0071bc;}</style></defs><title>map2</title><rect class="cls-1" x="232.28" y="1" width="109.81" height="173.7"/><path class="cls-2" d="M538.75,39v171.7H430.93V39H538.75m2-2H428.93v175.7H540.75V37Z" transform="translate(-197.66 -37.03)"/><rect class="cls-3" x="250.08" y="18.52" width="20.3" height="20.3"/><path class="cls-2" d="M467.54,56v19.3h-19.3V56h19.3m1-1h-21.3v21.3h21.3V55Z" transform="translate(-197.66 -37.03)"/><rect class="cls-3" x="277.03" y="18.52" width="20.3" height="20.3"/><path class="cls-2" d="M494.49,56v19.3h-19.3V56h19.3m1-1h-21.3v21.3h21.3V55Z" transform="translate(-197.66 -37.03)"/><rect class="cls-3" x="303.99" y="18.52" width="20.3" height="20.3"/><path class="cls-2" d="M521.44,56v19.3h-19.3V56h19.3m1-1h-21.3v21.3h21.3V55Z" transform="translate(-197.66 -37.03)"/><rect class="cls-3" x="250.08" y="49.14" width="20.3" height="20.3"/><path class="cls-2" d="M467.54,86.66V106h-19.3V86.66h19.3m1-1h-21.3V107h21.3V85.66Z" transform="translate(-197.66 -37.03)"/><rect class="cls-3" x="277.03" y="49.14" width="20.3" height="20.3"/><path class="cls-2" d="M494.49,86.66V106h-19.3V86.66h19.3m1-1h-21.3V107h21.3V85.66Z" transform="translate(-197.66 -37.03)"/><rect class="cls-3" x="303.99" y="49.14" width="20.3" height="20.3"/><path class="cls-2" d="M521.44,86.66V106h-19.3V86.66h19.3m1-1h-21.3V107h21.3V85.66Z" transform="translate(-197.66 -37.03)"/><rect class="cls-3" x="250.08" y="79.25" width="20.3" height="20.3"/><path class="cls-2" d="M467.54,116.78v19.3h-19.3v-19.3h19.3m1-1h-21.3v21.3h21.3v-21.3Z" transform="translate(-197.66 -37.03)"/><rect class="cls-3" x="277.03" y="79.25" width="20.3" height="20.3"/><path class="cls-2" d="M494.49,116.78v19.3h-19.3v-19.3h19.3m1-1h-21.3v21.3h21.3v-21.3Z" transform="translate(-197.66 -37.03)"/><rect class="cls-3" x="303.99" y="79.25" width="20.3" height="20.3"/><path class="cls-2" d="M521.44,116.78v19.3h-19.3v-19.3h19.3m1-1h-21.3v21.3h21.3v-21.3Z" transform="translate(-197.66 -37.03)"/><rect class="cls-3" x="250.08" y="108.54" width="20.3" height="20.3"/><path class="cls-2" d="M467.54,146.06v19.3h-19.3v-19.3h19.3m1-1h-21.3v21.3h21.3v-21.3Z" transform="translate(-197.66 -37.03)"/><rect class="cls-3" x="277.03" y="108.54" width="20.3" height="20.3"/><path class="cls-2" d="M494.49,146.06v19.3h-19.3v-19.3h19.3m1-1h-21.3v21.3h21.3v-21.3Z" transform="translate(-197.66 -37.03)"/><rect class="cls-3" x="303.99" y="108.54" width="20.3" height="20.3"/><path class="cls-2" d="M521.44,146.06v19.3h-19.3v-19.3h19.3m1-1h-21.3v21.3h21.3v-21.3Z" transform="translate(-197.66 -37.03)"/><rect class="cls-4" x="273.37" y="137.82" width="27.99" height="36.38"/><path class="cls-2" d="M498.52,175.34v35.38h-27V175.34h27m1-1h-29v37.38h29V174.34Z" transform="translate(-197.66 -37.03)"/><rect class="cls-3" x="310.64" y="138.66" width="20.3" height="20.3"/><path class="cls-2" d="M528.1,176.18v19.3H508.8v-19.3h19.3m1-1H507.8v21.3h21.3v-21.3Z" transform="translate(-197.66 -37.03)"/><rect class="cls-3" x="245.29" y="139.99" width="20.3" height="20.3"/><path class="cls-2" d="M462.75,177.51v19.3h-19.3v-19.3h19.3m1-1h-21.3v21.3h21.3v-21.3Z" transform="translate(-197.66 -37.03)"/><rect class="cls-1" x="367.68" y="37.32" width="87.01" height="137.38"/><path class="cls-2" d="M651.34,75.35V210.73h-85V75.35h85m2-2h-89V212.73h89V73.35Z" transform="translate(-197.66 -37.03)"/><rect class="cls-3" x="381.82" y="51.24" width="16.22" height="16.22"/><path class="cls-2" d="M595.2,88.77V104H580V88.77H595.2m1-1H579V105H596.2V87.77Z" transform="translate(-197.66 -37.03)"/><rect class="cls-3" x="403.08" y="51.24" width="16.22" height="16.22"/><path class="cls-2" d="M616.45,88.77V104H601.23V88.77h15.22m1-1H600.23V105h17.22V87.77Z" transform="translate(-197.66 -37.03)"/><rect class="cls-3" x="424.33" y="51.24" width="16.22" height="16.22"/><path class="cls-2" d="M637.7,88.77V104H622.48V88.77H637.7m1-1H621.48V105H638.7V87.77Z" transform="translate(-197.66 -37.03)"/><rect class="cls-3" x="381.82" y="75.38" width="16.22" height="16.22"/><path class="cls-2" d="M595.2,112.91v15.22H580V112.91H595.2m1-1H579v17.22H596.2V111.91Z" transform="translate(-197.66 -37.03)"/><rect class="cls-3" x="403.08" y="75.38" width="16.22" height="16.22"/><path class="cls-2" d="M616.45,112.91v15.22H601.23V112.91h15.22m1-1H600.23v17.22h17.22V111.91Z" transform="translate(-197.66 -37.03)"/><rect class="cls-3" x="424.33" y="75.38" width="16.22" height="16.22"/><path class="cls-2" d="M637.7,112.91v15.22H622.48V112.91H637.7m1-1H621.48v17.22H638.7V111.91Z" transform="translate(-197.66 -37.03)"/><rect class="cls-3" x="381.82" y="99.13" width="16.22" height="16.22"/><path class="cls-2" d="M595.2,136.65v15.22H580V136.65H595.2m1-1H579v17.22H596.2V135.65Z" transform="translate(-197.66 -37.03)"/><rect class="cls-3" x="403.08" y="99.13" width="16.22" height="16.22"/><path class="cls-2" d="M616.45,136.65v15.22H601.23V136.65h15.22m1-1H600.23v17.22h17.22V135.65Z" transform="translate(-197.66 -37.03)"/><rect class="cls-3" x="424.33" y="99.13" width="16.22" height="16.22"/><path class="cls-2" d="M637.7,136.65v15.22H622.48V136.65H637.7m1-1H621.48v17.22H638.7V135.65Z" transform="translate(-197.66 -37.03)"/><rect class="cls-3" x="381.82" y="122.22" width="16.22" height="16.22"/><path class="cls-2" d="M595.2,159.74V175H580V159.74H595.2m1-1H579V176H596.2V158.74Z" transform="translate(-197.66 -37.03)"/><rect class="cls-3" x="403.08" y="122.22" width="16.22" height="16.22"/><path class="cls-2" d="M616.45,159.74V175H601.23V159.74h15.22m1-1H600.23V176h17.22V158.74Z" transform="translate(-197.66 -37.03)"/><rect class="cls-3" x="424.33" y="122.22" width="16.22" height="16.22"/><path class="cls-2" d="M637.7,159.74V175H622.48V159.74H637.7m1-1H621.48V176H638.7V158.74Z" transform="translate(-197.66 -37.03)"/><rect class="cls-4" x="400.19" y="145.3" width="22.28" height="28.9"/><path class="cls-2" d="M619.63,182.83v27.9H598.34v-27.9h21.28m1-1H597.34v29.9h23.28v-29.9Z" transform="translate(-197.66 -37.03)"/><rect class="cls-3" x="429.57" y="145.96" width="16.22" height="16.22"/><path class="cls-2" d="M642.95,183.49v15.22H627.73V183.49h15.22m1-1H626.73v17.22h17.22V182.49Z" transform="translate(-197.66 -37.03)"/><rect class="cls-3" x="378.05" y="147.01" width="16.22" height="16.22"/><path class="cls-2" d="M591.42,184.54v15.22H576.2V184.54h15.22m1-1H575.2v17.22h17.22V183.54Z" transform="translate(-197.66 -37.03)"/><rect class="cls-3" x="488.1" y="135.64" width="8.82" height="36.38"/><g id="Shape_1" data-name="Shape 1"><path class="cls-5" d="M826.81,193.71a1.16,1.16,0,1,0,1.16-1.16A1.16,1.16,0,0,0,826.81,193.71Zm-6.44,1.3a7.67,7.67,0,0,0,1.31,3.16l2.81-2.81c-.05-.11-.1-.23-.14-.35Zm6,2.19L823.51,200a7.67,7.67,0,0,0,3.16,1.31v-4ZM734,192.07l-2.81-2.81a7.67,7.67,0,0,0-1.31,3.16h4C733.91,192.3,734,192.18,734,192.07Zm93.47,4.26a.49.49,0,1,0,.49-.49A.49.49,0,0,0,827.48,196.33Zm-1.16-6.1.35-.15v-4a7.67,7.67,0,0,0-3.16,1.31Zm-11,3.48A12.62,12.62,0,1,0,828,181.09,12.62,12.62,0,0,0,815.35,193.71Zm3.61,0a9,9,0,1,1,9,9A9,9,0,0,1,819,193.71Zm-83.1-3.48.35-.15v-4a7.66,7.66,0,0,0-3.16,1.31Zm96.57-2.81a7.67,7.67,0,0,0-3.16-1.31v4l.35.15Zm-.83,5h4a7.66,7.66,0,0,0-1.31-3.16l-2.81,2.81Q831.53,192.24,831.6,192.41Zm-3.14-1.32a.49.49,0,1,0-.49.49A.49.49,0,0,0,828.46,191.1Zm-3.11,2.12a.49.49,0,1,0,.49.49A.49.49,0,0,0,825.35,193.22Zm6.1,2.14,2.81,2.81a7.67,7.67,0,0,0,1.31-3.16h-4C831.55,195.13,831.51,195.25,831.45,195.36Zm-7-3.29-2.81-2.81a7.67,7.67,0,0,0-1.31,3.16h4C824.38,192.3,824.43,192.18,824.48,192.07Zm5.13,5.13-.35.15v4a7.66,7.66,0,0,0,3.16-1.31Zm1-3a.49.49,0,1,0-.49-.49A.49.49,0,0,0,830.58,194.2ZM793.7,150.83h0ZM729.9,195a7.66,7.66,0,0,0,1.31,3.16l2.81-2.81c-.05-.11-.1-.23-.14-.35Zm-5-1.3a12.62,12.62,0,1,0,12.62-12.62A12.62,12.62,0,0,0,724.87,193.71Zm3.61,0a9,9,0,1,1,9,9A9,9,0,0,1,728.48,193.71Zm83-41.67.09,0Zm-76.56,41.18a.49.49,0,1,0,.49.49A.49.49,0,0,0,734.88,193.22Zm1,4L733,200a7.67,7.67,0,0,0,3.16,1.31v-4Zm59-46.37c5.36,0,3.48-.16-1.07,0Zm-82.19,42c.41.26,1.71,0,2,.29l.39,1.64a16.44,16.44,0,0,0,2,2.42c.56.29,1.45-.11,2.13.19a21.35,21.35,0,0,1,1.84,1.74h4.19a13.33,13.33,0,1,1,24.35,0h66.13a13.33,13.33,0,1,1,24.3.1h.39l22,.1v-1.74h-1.74a13.38,13.38,0,0,1-1.93-1.84c-.32-.7-.24-1.64-.68-2.22v-.19c2.4.05,6.87.78,5.7-2.42a6.41,6.41,0,0,0-.87-1.26,22.14,22.14,0,0,1-3.09-.19c-.57-.09-1.43.16-1.84-.1h-1l-1.26-4.45,3-1.45c-.12-1.11-2.63-2.58-3.58-3l-1.55-.48a18.88,18.88,0,0,1-2.71-3.09c-.5-.67-1.33-1.17-1.84-1.84a25.37,25.37,0,0,0-4.93-4.83c-1.18-.89-2.11-2.2-3.29-3.09-3.44-2.6-6.49-5.62-10-8.12s-8.11-3.93-12.56-5.42c-2.2-.73-4.53-.91-6.77-1.53-.34,0-11.08-1.15-16.65-1.24H793.7c-6.29.22-17.52,1-21.89,3.39a13.69,13.69,0,0,0-3.38,3c-1.32,2-2.48,4.11-3.77,6.18a39.61,39.61,0,0,0-2.13,3.48c-1.22-.13-2.45.32-3.67.19-12.72,0-31.94,4.5-38.32,11,.6-.56-5.11,6.37-5.55,10.48a8.26,8.26,0,0,0-2.8.58C711.86,190.31,711.81,192,712.68,192.82Zm85.62-29.68s-.14-5.52.34-5.71a10.21,10.21,0,0,1,1.92-.29s16.09,1.21,21.24,6.86a3,3,0,0,1,.49,2.35,2.48,2.48,0,0,1-2.21,2.35l-20.24,0a2,2,0,0,1-1.34-.24C798,168,798.29,163.14,798.29,163.14Zm-23.84,5.13,1.73-10.41s16.08-2.22,18-.77c.34.26.29,1.06.29,1.06v9.35a1.1,1.1,0,0,1-.24.77.7.7,0,0,1-.72.19Zm-7.91-1c.14-1.29,4.22-7.39,4.89-7.87a22.06,22.06,0,0,1,3.5-1.34l-1.73,10.12-5.42.1S766.4,168.56,766.55,167.27Zm-46.23,11,.23-.24Zm16,15.48a1.16,1.16,0,1,0,1.16-1.16A1.16,1.16,0,0,0,736.34,193.71Zm4.78-1.3h4a7.66,7.66,0,0,0-1.31-3.16L741,192.07A3.77,3.77,0,0,1,741.12,192.41ZM738,191.1a.49.49,0,1,0-.49.49A.49.49,0,0,0,738,191.1Zm3,4.26,2.81,2.81a7.67,7.67,0,0,0,1.31-3.16h-4C741.08,195.13,741,195.25,741,195.36Zm1-7.94a7.67,7.67,0,0,0-3.16-1.31v4l.35.15ZM737,196.33a.49.49,0,1,0,.49-.49A.49.49,0,0,0,737,196.33Zm2.14.87-.35.15v4a7.66,7.66,0,0,0,3.16-1.31Zm1-3a.49.49,0,1,0-.49-.49A.49.49,0,0,0,740.11,194.2Z" transform="translate(-197.66 -37.03)"/></g><rect class="cls-6" x="470.86" y="110.96" width="42.51" height="24.68" rx="9.27" ry="9.27"/><text class="cls-7" transform="translate(474.87 126)">Parking</text><rect class="cls-8" x="88.09" y="229.89" width="13.2" height="27.15"/><path class="cls-2" d="M298.45,267.42v26.15h-12.2V267.42h12.2m1-1h-14.2v28.15h14.2V266.42Z" transform="translate(-197.66 -37.03)"/><polygon class="cls-9" points="77.55 308 77.55 259.25 111.44 225.35 126.31 225.35 160.2 259.25 160.2 308 77.55 308"/><path class="cls-2" d="M323.76,262.88l33.6,33.6v48H275.71v-48l33.6-33.6h14.45m.41-1H308.89l-.29.29-15,15L275,295.77l-.29.29v49.46h83.65V296.06l-.29-.29-18.56-18.56-15-15-.29-.29Z" transform="translate(-197.66 -37.03)"/><rect class="cls-10" x="85.47" y="269.64" width="14.95" height="33.25"/><path class="cls-2" d="M297.57,307.16v32.25H283.63V307.16h13.95m1-1H282.63v34.25h15.95V306.16Z" transform="translate(-197.66 -37.03)"/><rect class="cls-3" x="114.59" y="269.64" width="33.34" height="14.95"/><path class="cls-2" d="M345.08,307.16v13.95H312.75V307.16h32.34m1-1H311.75v15.95h34.34V306.16Z" transform="translate(-197.66 -37.03)"/><rect class="cls-11" x="16.39" y="196.77" width="11.94" height="24.43"/><path class="cls-2" d="M225.48,234.3v23.43H214.55V234.3h10.94m1-1H213.55v25.43h12.94V233.3Z" transform="translate(-197.66 -37.03)"/><polygon class="cls-12" points="6.95 266.87 6.95 223.11 37.35 192.71 50.71 192.71 81.11 223.11 81.11 266.87 6.95 266.87"/><path class="cls-2" d="M248.16,230.23l30.11,30.11v43.05H205.11V260.34l30.11-30.11h12.95m.41-1H234.8l-.29.29L204.4,259.63l-.29.29v44.47h75.16V259.93l-.29-.29-30.11-30.11-.29-.29Z" transform="translate(-197.66 -37.03)"/><rect class="cls-10" x="14.05" y="232.39" width="13.5" height="29.9"/><path class="cls-2" d="M224.7,269.92v28.9H212.2v-28.9h12.5m1-1H211.2v30.9h14.5v-30.9Z" transform="translate(-197.66 -37.03)"/><rect class="cls-3" x="40.14" y="232.39" width="29.98" height="13.5"/><path class="cls-2" d="M267.27,269.92v12.5h-29v-12.5h29m1-1h-31v14.5h31v-14.5Z" transform="translate(-197.66 -37.03)"/><rect class="cls-13" x="11.11" y="242.57" width="13.29" height="27.34"/><path class="cls-2" d="M221.56,280.1v26.34H209.27V280.1h12.29m1-1H208.27v28.34h14.29V279.1Z" transform="translate(-197.66 -37.03)"/><polygon class="cls-6" points="0.5 321.24 0.5 272.14 34.64 238 49.6 238 83.74 272.14 83.74 321.24 0.5 321.24"/><path class="cls-2" d="M247.05,275.53l33.84,33.84v48.4H198.66v-48.4l33.84-33.84h14.55m.41-1H232.09l-.29.29L213.5,293.11l-15.55,15.55-.29.29v49.81H281.9V309l-.29-.29-15.55-15.55-18.29-18.29-.29-.29Z" transform="translate(-197.66 -37.03)"/><rect class="cls-10" x="8.48" y="282.61" width="15.05" height="33.49"/><path class="cls-2" d="M220.68,320.13v32.49h-14V320.13h14m1-1h-16v34.49h16V319.13Z" transform="translate(-197.66 -37.03)"/><rect class="cls-3" x="37.81" y="282.61" width="33.57" height="15.05"/><path class="cls-2" d="M268.54,320.13v14H236v-14h32.57m1-1H235v16h34.57v-16Z" transform="translate(-197.66 -37.03)"/><rect class="cls-1" x="74.24" y="258.23" width="14.51" height="29.95"/><path class="cls-2" d="M285.91,295.75V324.7H272.4V295.75h13.51m1-1H271.4V325.7h15.51V294.75Z" transform="translate(-197.66 -37.03)"/><polygon class="cls-14" points="62.58 344.58 62.58 290.69 100.07 253.21 116.48 253.21 153.96 290.69 153.96 344.58 62.58 344.58"/><path class="cls-2" d="M313.92,290.73l37.19,37.19v53.18H260.74V327.92l37.19-37.19h16m.41-1H297.52l-.29.29-13.5,13.5L260,327.21l-.29.29v54.6h92.38v-54.6l-.29-.29L340,315.41,314.63,290l-.29-.29Z" transform="translate(-197.66 -37.03)"/><rect class="cls-3" x="71.35" y="302.23" width="16.44" height="36.7"/><path class="cls-2" d="M284.94,339.75v35.7H269.51v-35.7h15.44m1-1H268.51v37.7h17.44v-37.7Z" transform="translate(-197.66 -37.03)"/><rect class="cls-2" x="103.58" y="302.23" width="36.79" height="16.44"/><path class="cls-2" d="M337.53,339.75v15.44H301.74V339.75h35.79m1-1H300.74v17.44h37.79V338.75Z" transform="translate(-197.66 -37.03)"/><rect class="cls-1" x="114.67" y="37.32" width="87.01" height="137.38"/><path class="cls-2" d="M398.33,75.35V210.73h-85V75.35h85m2-2h-89V212.73h89V73.35Z" transform="translate(-197.66 -37.03)"/><rect class="cls-3" x="128.81" y="51.24" width="16.22" height="16.22"/><path class="cls-2" d="M342.19,88.77V104H327V88.77h15.22m1-1H326V105h17.22V87.77Z" transform="translate(-197.66 -37.03)"/><rect class="cls-3" x="150.07" y="51.24" width="16.22" height="16.22"/><path class="cls-2" d="M363.44,88.77V104H348.22V88.77h15.22m1-1H347.22V105h17.22V87.77Z" transform="translate(-197.66 -37.03)"/><rect class="cls-3" x="171.32" y="51.24" width="16.22" height="16.22"/><path class="cls-2" d="M384.69,88.77V104H369.47V88.77h15.22m1-1H368.47V105h17.22V87.77Z" transform="translate(-197.66 -37.03)"/><rect class="cls-3" x="128.81" y="75.38" width="16.22" height="16.22"/><path class="cls-2" d="M342.19,112.91v15.22H327V112.91h15.22m1-1H326v17.22h17.22V111.91Z" transform="translate(-197.66 -37.03)"/><rect class="cls-3" x="150.07" y="75.38" width="16.22" height="16.22"/><path class="cls-2" d="M363.44,112.91v15.22H348.22V112.91h15.22m1-1H347.22v17.22h17.22V111.91Z" transform="translate(-197.66 -37.03)"/><rect class="cls-3" x="171.32" y="75.38" width="16.22" height="16.22"/><path class="cls-2" d="M384.69,112.91v15.22H369.47V112.91h15.22m1-1H368.47v17.22h17.22V111.91Z" transform="translate(-197.66 -37.03)"/><rect class="cls-3" x="128.81" y="99.13" width="16.22" height="16.22"/><path class="cls-2" d="M342.19,136.65v15.22H327V136.65h15.22m1-1H326v17.22h17.22V135.65Z" transform="translate(-197.66 -37.03)"/><rect class="cls-3" x="150.07" y="99.13" width="16.22" height="16.22"/><path class="cls-2" d="M363.44,136.65v15.22H348.22V136.65h15.22m1-1H347.22v17.22h17.22V135.65Z" transform="translate(-197.66 -37.03)"/><rect class="cls-3" x="171.32" y="99.13" width="16.22" height="16.22"/><path class="cls-2" d="M384.69,136.65v15.22H369.47V136.65h15.22m1-1H368.47v17.22h17.22V135.65Z" transform="translate(-197.66 -37.03)"/><rect class="cls-3" x="128.81" y="122.22" width="16.22" height="16.22"/><path class="cls-2" d="M342.19,159.74V175H327V159.74h15.22m1-1H326V176h17.22V158.74Z" transform="translate(-197.66 -37.03)"/><rect class="cls-3" x="150.07" y="122.22" width="16.22" height="16.22"/><path class="cls-2" d="M363.44,159.74V175H348.22V159.74h15.22m1-1H347.22V176h17.22V158.74Z" transform="translate(-197.66 -37.03)"/><rect class="cls-3" x="171.32" y="122.22" width="16.22" height="16.22"/><path class="cls-2" d="M384.69,159.74V175H369.47V159.74h15.22m1-1H368.47V176h17.22V158.74Z" transform="translate(-197.66 -37.03)"/><rect class="cls-4" x="147.18" y="145.3" width="22.28" height="28.9"/><path class="cls-2" d="M366.62,182.83v27.9H345.34v-27.9h21.28m1-1H344.34v29.9h23.28v-29.9Z" transform="translate(-197.66 -37.03)"/><rect class="cls-3" x="176.57" y="145.96" width="16.22" height="16.22"/><path class="cls-2" d="M389.94,183.49v15.22H374.72V183.49h15.22m1-1H373.72v17.22h17.22V182.49Z" transform="translate(-197.66 -37.03)"/><rect class="cls-3" x="125.04" y="147.01" width="16.22" height="16.22"/><path class="cls-2" d="M338.41,184.54v15.22H323.19V184.54h15.22m1-1H322.19v17.22h17.22V183.54Z" transform="translate(-197.66 -37.03)"/><path class="cls-2" d="M335,250,673.22,538c92.72-54.19,159-154.2,161.26-288H335" transform="translate(-197.66 -37.03)"/></svg>